[img]http://img406.imageshack.us/img406/7576/theonet.th.jpg[/img]
[code]
The One Warrior 2011 R5 DVDRip XviD AC3-26K

Imdb: 
http://www.imdb.com/title/tt1623772/

Plot:
The One Warrior is a fantasy/action piece that is loosely based on video adventure games. In our story

Sources:
DVDR THNXS

Notes:
ENJOY!!!

Greetz:
Xtreme 

Encode|FYA|ILLUMANTI|CM8|RX|VISION|HDSCENE|NIGHTMAREZ|xTriLL|DTRG|CRYS|REMIXHD|BIDA|RX|REFILL|INSPiRAL

|SIC|ZOMBIESZ|HOPE|Anonymous|GooN
To all the people who have helped me :P you know who you are

Anything to offer email us @: 26k@hushmail.me

Video
ID                                       : 0
Format                                   : MPEG-4 Visual
Format profile                           : Advanced Simple@L5
Format settings, BVOP                    : 2
Format settings, QPel                    : No
Format settings, GMC                     : No warppoints
Format settings, Matrix                  : Default (H.263)
Muxing mode                              : Packed bitstream
Codec ID                                 : XVID
Codec ID/Hint                            : XviD
Duration                                 : 1h 26mn
Bit rate                                 : 2 097 Kbps
Width                                    : 720 pixels
Height                                   : 406 pixels
Display aspect ratio                     : 16:9
Frame rate                               : 25.000 fps
Color space                              : YUV
Chroma subsampling                       : 4:2:0
Bit depth                                : 8 bits
Scan type                                : Progressive
Compression mode                         : Lossy
Bits/(Pixel*Frame)                       : 0.287
Stream size                              : 1.27 GiB (89%)
Writing library                          : XviD 1.2.1 (UTC 2008-12-04)

Audio
ID                                       : 1
Format                                   : AC-3
Format/Info                              : Audio Coding 3
Mode extension                           : CM (complete main)
Codec ID                                 : 2000
Duration                                 : 1h 26mn
Bit rate mode                            : Constant
Bit rate                                 : 256 Kbps
Channel(s)                               : 6 channels
Channel positions                        : Front: L C R, Side: L R, LFE
Sampling rate                            : 48.0 KHz
Bit depth                                : 16 bits
Compression mode                         : Lossy
Stream size                              : 158 MiB (11%)
Alignment                                : Aligned on interleaves
Interleave, duration                     : 8186 ms (204.65 video frames)

[/code]
Screens:
[img]http://img36.imageshack.us/img36/2012/vlcsnap2012020513h05m08.th.png[/img]
[img]http://img859.imageshack.us/img859/4003/vlcsnap2012020513h05m01.th.png[/img]
[img]http://img39.imageshack.us/img39/7283/vlcsnap2012020513h04m23.th.png[/img]

[img]http://img851.imageshack.us/img851/5503/26ks.jpg[/img]
Thank you smallz for banner!